<svg width="572" height="488" viewBox="0 0 572 488" fill="none" xmlns="http://www.w3.org/2000/svg">
<path d="M541.413 242.716H344.236V263.398H541.413V242.716Z" fill="#F2CDBF"/>
<path d="M535.594 263.399V464.96H518.124V453.929H367.442V464.96H350.041V263.399H535.594Z" fill="#F2CDBF"/>
<path d="M535.58 263.399H350.041V267.535H535.58V263.399Z" fill="#D4A59B"/>
<path d="M516.483 281.462H368.601V326.275H516.483V281.462Z" fill="#D4A59B"/>
<path d="M518 277.325H367.084V322.138H518V277.325Z" fill="#FADED2"/>
<path d="M516.483 337.995H368.601V382.808H516.483V337.995Z" fill="#D4A59B"/>
<path d="M518 333.858H367.084V378.671H518V333.858Z" fill="#FADED2"/>
<path d="M516.483 394.528H368.601V439.341H516.483V394.528Z" fill="#D4A59B"/>
<path d="M518 390.391H367.084V435.204H518V390.391Z" fill="#FADED2"/>
<path d="M392.607 232.664V201.295H401.225V232.664C401.225 234.76 399.529 236.456 397.433 236.456H396.399C394.303 236.456 392.607 234.76 392.607 232.664Z" fill="white"/>
<path d="M391.049 200.302C391.049 199.764 391.49 199.309 392.041 199.309H401.79C402.328 199.309 402.783 199.75 402.783 200.302C402.783 200.84 402.341 201.295 401.79 201.295H392.041C391.49 201.281 391.049 200.84 391.049 200.302Z" fill="white"/>
<path d="M393.986 232.154V211.636H399.846V232.154C399.846 233.767 398.536 235.077 396.923 235.077C395.295 235.077 393.986 233.767 393.986 232.154Z" fill="#F0D3D8"/>
<path d="M409.842 232.664V201.295H418.46V232.664C418.46 234.76 416.764 236.456 414.668 236.456H413.634C411.538 236.456 409.842 234.76 409.842 232.664Z" fill="white"/>
<path d="M408.284 200.302C408.284 199.764 408.725 199.309 409.277 199.309H419.025C419.563 199.309 420.018 199.75 420.018 200.302C420.018 200.84 419.577 201.295 419.025 201.295H409.277C408.725 201.281 408.284 200.84 408.284 200.302Z" fill="white"/>
<path d="M411.221 232.154V211.636H417.081V232.154C417.081 233.767 415.771 235.077 414.158 235.077C412.531 235.077 411.221 233.767 411.221 232.154Z" fill="#F0D3D8"/>
<path d="M428.112 232.664V201.295H436.73V232.664C436.73 234.76 435.034 236.456 432.938 236.456H431.904C429.808 236.456 428.112 234.76 428.112 232.664Z" fill="white"/>
<path d="M426.554 200.302C426.554 199.764 426.995 199.309 427.547 199.309H437.295C437.833 199.309 438.288 199.75 438.288 200.302C438.288 200.84 437.847 201.295 437.295 201.295H427.547C426.995 201.281 426.554 200.84 426.554 200.302Z" fill="white"/>
<path d="M429.491 232.154V211.636H435.351V232.154C435.351 233.767 434.041 235.077 432.428 235.077C430.801 235.077 429.491 233.767 429.491 232.154Z" fill="#F0D3D8"/>
<path d="M446.727 232.664V201.295H455.345V232.664C455.345 234.76 453.649 236.456 451.553 236.456H450.519C448.423 236.456 446.727 234.76 446.727 232.664Z" fill="white"/>
<path d="M445.169 200.302C445.169 199.764 445.61 199.309 446.161 199.309H455.91C456.448 199.309 456.903 199.75 456.903 200.302C456.903 200.84 456.461 201.295 455.91 201.295H446.161C445.61 201.281 445.169 200.84 445.169 200.302Z" fill="white"/>
<path d="M448.106 232.154V211.636H453.966V232.154C453.966 233.767 452.656 235.077 451.043 235.077C449.416 235.077 448.106 233.767 448.106 232.154Z" fill="#F0D3D8"/>
<path d="M466.72 232.664V201.295H475.338V232.664C475.338 234.76 473.642 236.456 471.546 236.456H470.512C468.416 236.456 466.72 234.76 466.72 232.664Z" fill="white"/>
<path d="M465.162 200.302C465.162 199.764 465.603 199.309 466.155 199.309H475.903C476.441 199.309 476.896 199.75 476.896 200.302C476.896 200.84 476.455 201.295 475.903 201.295H466.155C465.603 201.281 465.162 200.84 465.162 200.302Z" fill="white"/>
<path d="M468.099 232.154V211.636H473.959V232.154C473.959 233.767 472.649 235.077 471.036 235.077C469.409 235.077 468.099 233.767 468.099 232.154Z" fill="#F0D3D8"/>
<path d="M490.258 203.101H384.085V205.859H490.258V203.101Z" fill="#A7C2D9"/>
<path d="M497.11 235.821H378.529V242.716H497.11V235.821Z" fill="#D49BA0"/>
<path d="M386.25 199.309H383.23V239.255H386.25V199.309Z" fill="#D49BA0"/>
<path d="M491.471 199.309H488.451V239.255H491.471V199.309Z" fill="#D49BA0"/>
<path d="M20.8804 187.12C23.3899 192.966 25.403 199.033 26.8784 205.211C33.9795 203.859 41.1634 202.963 48.3748 202.508" stroke="#F2CDBF" stroke-miterlimit="10" stroke-linecap="round"/>
<path d="M111.816 439.796H10.2354V449.241H111.816V439.796Z" fill="#326894"/>
<path d="M27.6229 352.349C27.6229 352.583 27.5953 352.831 27.5678 353.066L25.9959 366.082L11.9453 482.058C11.573 485.174 8.81529 487.38 5.78181 486.98C2.98273 486.622 0.928223 484.181 0.928223 481.368C0.928223 481.134 0.955801 480.886 0.983378 480.651L14.8547 366.082L16.592 351.673C16.9781 348.57 19.7221 346.351 22.7555 346.75C25.5822 347.095 27.6229 349.536 27.6229 352.349Z" fill="#4D8AB3"/>
<path d="M27.6231 352.349C27.6231 352.583 27.5955 352.831 27.5679 353.066L25.996 366.082H14.8687L16.606 351.673C16.9921 348.57 19.736 346.351 22.7695 346.75C25.5824 347.095 27.6231 349.536 27.6231 352.349Z" fill="#326894"/>
<path d="M67.9408 351.37V481.341C67.9408 484.485 65.4726 487.008 62.4253 487.008C60.9086 487.008 59.5297 486.374 58.5232 485.339C57.5304 484.319 56.9099 482.913 56.9099 481.327V351.356C56.9099 348.212 59.3919 345.689 62.4253 345.689C63.9559 345.689 65.3347 346.323 66.3275 347.357C67.3203 348.391 67.9408 349.811 67.9408 351.37Z" fill="#4D8AB3"/>
<path d="M66.3137 347.371C67.3203 348.391 67.927 349.811 67.927 351.383V366.082H56.8823V351.383C56.8823 348.24 59.3643 345.716 62.3978 345.716C63.9421 345.702 65.3209 346.337 66.3137 347.371Z" fill="#326894"/>
<path d="M123.454 481.341C123.454 484.181 121.413 486.608 118.614 486.967C115.58 487.353 112.823 485.146 112.45 482.044L98.3998 366.068L96.8279 353.052C96.8003 352.817 96.7727 352.569 96.7727 352.335C96.7727 349.522 98.8272 347.095 101.626 346.723C104.66 346.337 107.404 348.543 107.79 351.645L109.527 366.054L123.398 480.624C123.44 480.886 123.454 481.106 123.454 481.341Z" fill="#4D8AB3"/>
<path d="M109.541 366.068H98.4137L96.8418 353.052C96.8142 352.817 96.7866 352.569 96.7866 352.335C96.7866 349.522 98.8411 347.095 101.64 346.723C104.674 346.337 107.418 348.543 107.804 351.645L109.541 366.068Z" fill="#326894"/>
<path d="M133.505 336.712V340.394C133.505 346.833 128.293 352.045 121.854 352.045H17.5571C11.1178 352.045 5.90576 346.833 5.90576 340.394V336.712C5.90576 330.273 11.1178 325.061 17.5571 325.061H121.854C128.293 325.047 133.505 330.273 133.505 336.712Z" fill="#994403"/>
<path d="M133.505 336.712V340.394C133.505 346.833 128.293 352.045 121.854 352.045H27.1816C20.7424 352.045 15.5303 346.833 15.5303 340.394V336.712C15.5303 330.273 20.7424 325.061 27.1816 325.061H121.854C128.293 325.047 133.505 330.273 133.505 336.712Z" fill="#852E03"/>
<path d="M24.5894 104.485C23.2795 107.16 21.9558 109.849 20.7838 112.427C19.984 117.033 20.4529 121.748 20.7838 126.423C21.1147 131.097 21.3078 135.854 19.9978 140.363C18.6879 144.872 15.6407 149.119 11.1456 150.842C8.2224 151.959 4.73389 152.042 2.47257 154.165C-0.0921087 156.578 0.0871387 160.632 1.02476 163.969C1.81071 166.768 3.05169 169.553 5.27165 171.498C7.49161 173.442 11.0628 174.71 13.4896 173.304C15.8888 171.897 19.074 172.918 20.8114 175.041C22.5487 177.165 23.3622 179.909 25.072 182.06C27.4988 185.121 31.5665 186.706 35.5514 186.803C39.5363 186.899 43.7831 186.334 46.4443 184.679C52.139 181.108 59.2401 178.737 65.0727 182.087C68.1476 183.852 70.5743 186.665 73.8974 187.934C76.7241 189.009 80.0195 188.802 82.6807 187.396C85.3419 185.989 86.3623 182.983 88.0307 180.681C91.0917 176.462 98.51 179.867 103.639 178.475C109.127 176.972 112.823 170.946 111.54 165.555C110.258 160.163 104.287 158.247 98.965 157.447C95.3111 156.896 93.8081 152.249 92.967 148.774C92.1259 145.286 92.2776 141.659 92.4292 138.074C92.7464 130.78 96.0694 113.765 93.9598 111.476C92.8567 110.276 88.7201 107.243 87.2172 106.567C80.2953 103.41 73.3734 100.238 66.4516 97.0807C60.1502 94.1988 53.5455 91.2619 46.5822 91.4549C39.6328 91.6066 29.5809 94.3229 24.5894 104.485Z" fill="#732D02"/>
<path d="M48.5817 170.16C48.5817 170.16 17.8608 175.014 14.6067 185.893C11.3526 196.772 30.0085 272.899 30.0085 272.899L99.0341 268.68C99.0341 268.68 104.053 180.929 93.0775 175.427C82.1018 169.926 48.5817 170.16 48.5817 170.16Z" fill="#EBF5FF"/>
<path d="M75.3729 173.18C75.3729 173.18 70.8916 188.444 62.7564 191.781C54.6349 195.131 36.8477 174.766 36.8477 174.766C40.4327 172.49 41.784 167.016 42.2252 162.025C42.6664 156.951 42.17 152.4 42.17 152.4L66.8516 157.144C66.2173 164.783 68.4649 168.795 70.8227 170.905C73.0564 172.918 75.3729 173.18 75.3729 173.18Z" fill="#FBBD9A"/>
<path d="M70.8226 170.919C59.1023 172.463 48.4851 166.589 42.2251 162.039C42.6663 156.964 42.1699 152.414 42.1699 152.414L66.8515 157.157C66.2034 164.783 68.4648 168.809 70.8226 170.919Z" fill="#F0997F"/>
<path d="M142.22 459.389C139.559 463.815 93.3669 435.342 93.3669 430.433C93.3669 427.234 99.3926 422.601 103.584 419.788C105.832 418.272 107.542 417.265 107.542 417.265L118.324 412.315L123.178 414.921C130.251 427.11 137.008 439.809 140.386 448.648C142.399 453.86 143.213 457.748 142.22 459.389Z" fill="#D43226"/>
<path d="M140.4 448.634C127.163 449.186 109.665 427.772 103.598 419.775C105.846 418.258 107.555 417.251 107.555 417.251L118.338 412.301L123.192 414.907C130.279 427.096 137.022 439.796 140.4 448.634Z" fill="#F0997F"/>
<path d="M94.6907 275.188C94.6907 275.188 178.773 285.832 181.628 307.356C184.482 328.867 128.886 423.856 128.886 423.856L108.893 418.644L134.981 333.734L68.0374 305.329L81.3709 275.188H94.6907Z" fill="#002A42"/>
<path d="M121.785 461.844C119.124 466.27 72.9321 437.796 72.9321 432.888C72.9321 429.689 78.9577 425.056 83.1495 422.243C85.397 420.726 87.1068 419.72 87.1068 419.72L97.8895 414.77L102.743 417.376C109.817 429.565 116.573 442.264 119.951 451.102C121.964 456.315 122.778 460.203 121.785 461.844Z" fill="#EB4A2A"/>
<path d="M119.965 451.089C106.728 451.64 89.2303 430.227 83.1633 422.229C85.4109 420.712 87.1206 419.706 87.1206 419.706L97.9033 414.756L102.757 417.362C109.844 429.551 116.587 442.25 119.965 451.089Z" fill="#FBBD9A"/>
<path d="M23.7759 267.976C23.7759 267.976 -5.35934 325.585 45.9066 331.804C83.1495 336.326 107.831 335.416 108.603 337.485C109.872 340.808 84.3767 421.25 84.3767 421.25L109.486 429.192C109.486 429.192 161.455 317.574 158.628 307.853C156.298 299.855 84.5836 287.653 84.5836 287.653C90.623 284.785 95.0629 274.347 94.4148 260.889L23.7759 267.976Z" fill="#06384F"/>
<path d="M31.856 262.985C31.856 262.985 15.1442 299.759 28.5191 314.678C44.2794 332.259 113.209 326.592 118.007 332.81C121.854 337.788 91.3812 419.099 91.3812 419.099" stroke="#27788F" stroke-miterlimit="10" stroke-linecap="round"/>
<path d="M86.4036 417.872L110.699 425.276" stroke="#27788F" stroke-miterlimit="10" stroke-linecap="round"/>
<path d="M87.1757 125.899C93.1048 125.223 98.3031 128.188 98.7857 132.517C99.282 136.847 94.8697 140.901 88.9406 141.576C83.0115 142.252 77.8132 139.288 77.3306 134.958C76.848 130.628 81.2466 126.574 87.1757 125.899Z" fill="#F0997F"/>
<path d="M28.519 125.554C28.519 105.106 41.5079 88.5317 58.9504 88.5317C76.393 88.5317 90.5401 105.106 90.5401 125.554C90.5401 146.003 81.6189 163.597 65.1967 164.231C48.6504 164.865 28.519 145.989 28.519 125.554Z" fill="#FBBD9A"/>
<path d="M30.2148 130.297C38.9844 126.23 46.2096 118.949 49.4499 110.056C53.9863 115.171 60.6048 118.067 67.3199 119.322C74.0349 120.576 80.9292 120.342 87.3823 120.163C89.4781 121.941 90.9397 124.451 91.4361 127.154C92.1669 121.087 91.5189 114.84 89.5471 109.049C72.1735 103.754 54.9102 98.1286 37.7434 92.1857C35.1787 104.416 32.6141 116.647 30.2148 130.297Z" fill="#F0997F"/>
<path d="M46.5819 100.693C50.3186 107.739 57.5438 112.427 65.1413 114.854C72.7388 117.267 80.8189 117.667 88.899 117.901C90.1676 122.341 90.4296 127.54 90.4296 132.09C93.2149 125.637 94.6489 120.135 94.9109 114.785C94.9798 113.241 94.9798 111.669 94.9384 110.014C94.5386 98.7629 89.878 92.365 83.6318 87.5665C77.3718 82.7681 69.6915 80.7274 61.8045 80.7274C54.0139 80.7274 49.0638 82.4923 46.0993 85.5672C45.0514 86.6565 44.2516 87.8975 43.6725 89.2901C42.404 92.2684 43.8242 95.5088 46.5819 100.693Z" fill="#8C4206"/>
<path d="M20.6044 132.766C20.3424 122.769 19.7081 105.657 23.7344 97.4805C26.368 92.1306 31.3457 87.6768 37.261 86.8771C43.1763 86.0912 49.7121 89.7451 51.0772 95.5501C48.4573 108.98 41.7147 121.307 32.1592 130.973C28.85 132.572 23.9688 133.634 20.6044 132.766Z" fill="#8C4206"/>
<path d="M46.0857 85.581C57.5164 82.4923 70.3122 85.1949 79.7574 92.365C87.0791 97.9218 92.3326 105.96 94.9111 114.799C94.98 113.255 94.98 111.683 94.9386 110.028C94.5388 98.7766 89.8782 92.3787 83.632 87.5803C77.372 82.7819 69.6917 80.7412 61.8047 80.7412C54.0003 80.7412 49.0502 82.5061 46.0857 85.581Z" fill="#A66317"/>
<path d="M37.8508 138.43C38.9311 134.21 35.1239 129.59 29.3472 128.111C23.5705 126.632 18.0118 128.855 16.9316 133.075C15.8513 137.295 19.6585 141.914 25.4352 143.393C31.2119 144.872 36.7705 142.65 37.8508 138.43Z" fill="#FBBD9A"/>
<path d="M60.1225 138.377C61.0288 138.377 61.7634 137.205 61.7634 135.758C61.7634 134.311 61.0288 133.138 60.1225 133.138C59.2163 133.138 58.4817 134.311 58.4817 135.758C58.4817 137.205 59.2163 138.377 60.1225 138.377Z" fill="#2F344D"/>
<path d="M82.9426 138.391C83.8488 138.391 84.5834 137.218 84.5834 135.771C84.5834 134.325 83.8488 133.152 82.9426 133.152C82.0364 133.152 81.3018 134.325 81.3018 135.771C81.3018 137.218 82.0364 138.391 82.9426 138.391Z" fill="#2F344D"/>
<path d="M78.144 123.555C80.9569 122.603 84.9556 122.81 87.7271 124.713" stroke="#8C4206" stroke-width="2" stroke-miterlimit="10" stroke-linecap="round"/>
<path d="M61.5289 123.265C58.454 121.9 52.8145 122.19 50.1533 125.223" stroke="#8C4206" stroke-width="2" stroke-miterlimit="10" stroke-linecap="round"/>
<path d="M71.8013 134.172C72.5459 136.957 71.9944 140.418 71.0981 142.597" stroke="#D45E4E" stroke-width="2" stroke-miterlimit="10" stroke-linecap="round"/>
<path d="M69.8295 150.704C66.1894 151.421 59.5984 149.339 57.8059 146.306" stroke="#D45E4E" stroke-width="2" stroke-miterlimit="10" stroke-linecap="round"/>
<path d="M82.9426 182.473L95.2558 175.041C95.2558 175.041 105.639 175.924 112.671 188.844C119.662 201.695 132.83 243.24 136.98 245.073C141.13 246.907 191.721 247.555 191.721 247.555L192.41 262.378C192.41 262.378 130.444 272.209 123.054 268.142C115.663 264.06 91.7397 216.159 91.7397 216.159L82.9426 182.473Z" fill="#FBBD9A"/>
<path d="M82.1843 180.805L84.5559 172.504C84.5559 172.504 98.1515 173.083 105.101 178.53C112.05 183.976 117.745 198.785 117.745 198.785L100.068 227.328L82.1843 180.805Z" fill="#DE3B26"/>
<path d="M103.157 238.041C103.157 238.041 122.144 221.647 125.067 217.551C126.515 215.524 136.787 239.393 135.05 242.316C132.278 246.976 114.974 258.173 114.008 257.524C113.043 256.876 103.157 238.041 103.157 238.041Z" fill="#163649"/>
<path d="M98.179 223.108C103.901 214.022 109.624 204.949 115.332 195.862C115.649 195.366 115.98 194.842 116.476 194.511C117.897 193.559 119.965 194.731 120.544 196.331C121.137 197.944 120.71 199.723 120.268 201.377C122.102 201.088 123.757 202.88 123.977 204.714C124.212 206.562 123.412 208.368 122.543 210.009C117.249 220.033 108.369 228.1 97.8895 232.416C97.4069 229.299 96.4554 225.838 98.179 223.108Z" fill="#B82621"/>
<path d="M183.903 249.872C190.99 244.894 204.696 235.022 205.73 234.553C206.943 234.001 215.272 233.96 219.808 235.325C224.344 236.69 228.564 239.82 230.205 244.287C230.66 245.542 230.784 247.211 229.681 247.941C228.964 248.424 227.971 248.259 227.226 247.817C226.482 247.376 225.93 246.673 225.337 246.039C222.304 242.743 219.56 241.447 214.582 241.171C220.484 242.067 224.234 245.708 225.999 251.444C226.344 252.588 226.482 254.036 225.558 254.781C224.827 255.36 223.724 255.208 222.938 254.698C222.152 254.188 221.614 253.388 221.021 252.657C218.857 249.899 215.961 247.735 212.721 246.438C217.23 248.355 220.608 252.754 221.325 257.635C221.435 258.352 221.476 259.11 221.201 259.772C220.925 260.434 220.222 260.972 219.519 260.848C218.967 260.751 218.567 260.31 218.195 259.896C215.74 257.125 213.81 254.174 210.542 252.188C213.52 256.159 216.03 262.612 215.409 264.295C215.216 264.805 213.948 265.687 212.528 264.281C210.914 262.668 209.784 259.91 207.274 256.835C202.986 261.62 196.05 263.84 189.804 262.433C187.777 258.186 185.792 253.926 183.903 249.872Z" fill="#FBBD9A"/>
<path d="M196.767 243.557C201.8 241.75 206.93 240.206 212.142 238.965C212.831 238.8 213.548 238.634 214.251 238.717C214.954 238.8 215.671 239.172 215.975 239.806C216.292 240.468 216.085 241.282 215.658 241.875C215.23 242.467 214.61 242.895 213.975 243.281C211.783 244.646 209.453 245.804 206.998 246.976C206.516 250.672 203.799 253.967 200.27 255.139" fill="#FBBD9A"/>
<path d="M196.767 243.557C201.8 241.75 206.93 240.206 212.142 238.965C212.831 238.8 213.548 238.634 214.251 238.717C214.954 238.8 215.671 239.172 215.975 239.806C216.292 240.468 216.085 241.282 215.658 241.875C215.23 242.467 214.61 242.895 213.975 243.281C211.783 244.646 209.453 245.804 206.998 246.976C206.516 250.672 203.799 253.967 200.27 255.139" stroke="#D45E4E" stroke-miterlimit="10" stroke-linecap="round"/>
<path d="M71.2362 171.167C74.187 173.731 76.1036 188.182 77.6203 197.365C79.8954 211.126 91.4778 270.955 92.1673 275.188C93.3944 282.661 117.056 282.151 118.007 278.249C118.186 277.532 111.099 274.236 109.968 269.465C108.962 265.191 101.102 181.894 97.3104 177.509C92.3051 171.718 70.2848 170.339 71.2362 171.167Z" fill="#EB4A2A"/>
<path d="M38.7643 171.167C41.2325 172.049 48.9817 188.513 52.6632 203.584C60.3572 235.063 55.7794 281.806 52.6632 287.983C49.547 294.161 19.35 296.877 14.2206 295.236C11.2423 294.285 8.002 200.054 10.0565 188.223C11.4354 180.336 38.0197 170.905 38.7643 171.167Z" fill="#EB4A2A"/>
<path d="M84.0044 276.429C90.3747 274.098 108.81 269.245 111.361 269.507C113.926 269.769 116.587 270.693 118.2 272.844C119.234 274.222 119.744 275.974 120.227 277.67C121.013 280.427 121.799 283.185 122.585 285.943C122.861 286.908 123.136 287.915 122.999 288.907C122.861 289.9 122.171 290.893 121.234 290.962C119.91 291.072 119.083 289.486 118.6 288.149C117.359 284.716 116.118 281.282 114.891 277.918C115.704 282.151 116.504 286.398 117.318 290.631C117.511 291.637 117.704 292.672 117.469 293.664C117.235 294.657 116.463 295.581 115.511 295.567C114.105 295.54 113.429 293.733 113.112 292.244C112.409 288.935 111.692 285.612 110.603 282.33C112.064 286.991 112.285 292.092 111.209 296.877C111.044 297.608 110.823 298.38 110.327 298.904C109.83 299.428 108.948 299.621 108.424 299.125C108.024 298.752 107.941 298.118 107.886 297.553C107.459 293.278 107.031 288.99 106.604 284.716C107.018 289.224 107.417 293.871 106.149 298.187C105.928 298.959 105.625 299.731 105.06 300.255C104.494 300.779 103.584 300.945 103.005 300.448C102.44 299.966 102.371 299.097 102.343 298.325C102.247 295.636 102.15 292.947 102.136 289.804C99.7648 292.575 96.4831 294.423 93.0221 294.96C89.5612 295.498 85.9348 294.698 82.5291 293.609C82.8324 288.604 83.122 283.585 84.0044 276.429Z" fill="#FBBD9A"/>
<path d="M36.8475 199.309C34.9171 190.388 26.9197 175.924 20.3977 178.916C16.661 180.639 5.89209 184.238 5.89209 207.83C5.89209 239.723 10.0838 281.627 20.3977 288.645C25.6373 292.217 82.9427 295.719 82.9427 295.719L87.1344 275.188C87.1344 275.188 44.9 267.356 42.9558 261.565C40.2119 253.388 41.9768 223.039 36.8475 199.309Z" fill="#EB4A2A"/>
<path d="M31.856 194.414C38.9433 218.379 40.4324 259.152 41.4804 261.606C42.4318 263.84 47.8231 264.777 52.0562 266.225" stroke="#B82621" stroke-miterlimit="10" stroke-linecap="round"/>
<path d="M39.9498 292.299C32.0903 291.513 22.328 289.983 20.1494 288.356C17.5847 286.439 14.4547 277.063 12.2485 270.665" stroke="#B82621" stroke-miterlimit="10" stroke-linecap="round"/>
<path d="M38.8052 234.056C41.6318 230.513 42.7901 224.639 43.0245 217.482" stroke="#B82621" stroke-miterlimit="10" stroke-linecap="round"/>
<path d="M349.641 437.341H248.061V446.538H349.641V437.341Z" fill="#326894"/>
<path d="M265.462 352.169C265.462 352.404 265.434 352.638 265.407 352.873L263.835 365.544L249.784 478.486C249.412 481.52 246.654 483.671 243.621 483.285C240.822 482.926 238.767 480.555 238.767 477.825C238.767 477.59 238.795 477.356 238.823 477.121L252.694 365.53L254.431 351.494C254.817 348.474 257.561 346.309 260.595 346.695C263.408 347.068 265.462 349.439 265.462 352.169Z" fill="#4D8AB3"/>
<path d="M265.462 352.169C265.462 352.404 265.434 352.638 265.407 352.873L263.835 365.544H252.708L254.445 351.507C254.831 348.488 257.575 346.323 260.608 346.709C263.407 347.068 265.462 349.439 265.462 352.169Z" fill="#326894"/>
<path d="M305.766 351.218V477.797C305.766 480.858 303.298 483.312 300.251 483.312C298.734 483.312 297.355 482.706 296.349 481.699C295.356 480.706 294.735 479.327 294.735 477.797V351.218C294.735 348.157 297.217 345.702 300.251 345.702C301.781 345.702 303.16 346.309 304.153 347.316C305.159 348.322 305.766 349.701 305.766 351.218Z" fill="#4D8AB3"/>
<path d="M304.153 347.316C305.159 348.309 305.766 349.701 305.766 351.218V365.544H294.721V351.218C294.721 348.157 297.203 345.702 300.237 345.702C301.781 345.702 303.16 346.323 304.153 347.316Z" fill="#326894"/>
<path d="M361.293 477.811C361.293 480.569 359.252 482.94 356.453 483.299C353.419 483.685 350.662 481.534 350.289 478.5L336.239 365.558L334.667 352.886C334.639 352.652 334.612 352.417 334.612 352.183C334.612 349.453 336.666 347.081 339.465 346.723C342.499 346.337 345.243 348.501 345.629 351.521L347.366 365.558L361.238 477.149C361.279 477.37 361.293 477.59 361.293 477.811Z" fill="#4D8AB3"/>
<path d="M347.38 365.544H336.253L334.681 352.873C334.653 352.638 334.625 352.404 334.625 352.169C334.625 349.439 336.68 347.068 339.479 346.709C342.513 346.323 345.256 348.488 345.643 351.507L347.38 365.544Z" fill="#326894"/>
<path d="M371.345 336.712V340.394C371.345 346.833 366.132 352.045 359.693 352.045H255.396C248.957 352.045 243.745 346.833 243.745 340.394V336.712C243.745 330.273 248.957 325.061 255.396 325.061H359.693C366.132 325.047 371.345 330.273 371.345 336.712Z" fill="#994403"/>
<path d="M371.345 336.712V340.394C371.345 346.833 366.132 352.045 359.693 352.045H265.035C258.595 352.045 253.383 346.833 253.383 340.394V336.712C253.383 330.273 258.595 325.061 265.035 325.061H359.693C366.132 325.047 371.345 330.273 371.345 336.712Z" fill="#852E03"/>
<path d="M234.741 170.16C236.837 166.727 234.796 162.259 235.458 158.288C235.651 157.185 236.092 156.068 236.975 155.365C237.857 154.662 239.25 154.565 240.05 155.351C241.029 156.303 240.698 157.902 240.684 159.267C240.656 161.722 241.828 163.997 242.339 166.396C243.58 172.215 240.491 176.999 237.54 182.018C233.831 184.583 228.84 186.389 225.723 186.693C223.765 186.886 213.741 181.356 209.825 169.471C207.853 163.514 208.088 161.046 208.75 160.232C209.412 159.419 210.708 159.033 211.549 159.667C212.059 160.039 212.293 160.674 212.5 161.266C213.755 164.838 214.996 168.409 216.223 172.118C211.383 167.595 208.681 160.88 209.067 154.262C209.136 152.993 209.522 151.463 210.735 151.091C211.507 150.842 212.376 151.201 212.955 151.78C213.534 152.359 213.893 153.104 214.238 153.848C215.975 157.613 217.726 161.363 220.167 165.831C215.741 161.639 213.851 154.965 215.423 149.077C215.685 148.085 216.278 146.926 217.312 146.913C218.36 146.899 218.981 148.057 219.353 149.05C221.118 153.779 222.883 158.523 224.648 163.252C222.125 159.322 221.049 154.483 221.67 149.85C221.89 148.167 222.745 146.14 224.455 146.071C225.42 146.03 226.316 146.692 226.827 147.519C227.337 148.347 227.544 149.312 227.778 150.263C229.102 155.668 231.501 160.798 234.741 170.16Z" fill="#FDBD9B"/>
<path d="M209.812 159.791C211.383 159.364 212.487 159.915 213.093 162.19C213.948 165.403 216.223 172.849 218.567 174.503" stroke="#B0514A" stroke-width="0.5" stroke-miterlimit="10" stroke-linecap="round"/>
<path d="M238.037 179.081L243.814 192.553L228.536 201.805L221.739 183.825L238.037 179.081Z" fill="#FDBD9B"/>
<path d="M237.402 163.224C236.299 157.061 231.652 152.552 226.344 151.987L226.261 151.559C226.261 151.559 223.49 152.056 222.566 152.263C216.526 153.614 212.79 160.384 214.031 167.389C215.285 174.393 221.132 179.44 227.268 178.626C228.205 178.502 230.977 178.006 230.977 178.006L230.894 177.578C235.693 175.234 238.505 169.402 237.402 163.224Z" fill="#316382"/>
<path d="M226.027 151.601C232.48 150.456 238.754 155.448 240.064 162.756C241.373 170.064 237.196 176.93 230.756 178.075C224.303 179.219 218.029 174.228 216.72 166.92C215.41 159.612 219.588 152.745 226.027 151.601Z" fill="#407C91"/>
<path d="M237.361 163.238C236.354 157.626 231.515 153.779 226.551 154.662C226.468 154.676 226.371 154.689 226.289 154.717C221.477 155.724 218.388 160.922 219.381 166.437C220.373 171.966 225.048 175.772 229.929 175.055C230.012 175.055 230.108 175.028 230.191 175.014C235.141 174.145 238.368 168.864 237.361 163.238Z" fill="#EBF5FF"/>
<path d="M284.904 175.483L275.5 168.326C275.5 168.326 269.364 171.801 266.096 179.068C262.829 186.334 258.499 210.588 258.499 210.588L240.932 181.412L218.553 197.296C218.553 197.296 243.373 260.117 258.32 260.875C273.267 261.634 283.787 247.79 283.787 247.79L284.904 175.483Z" fill="white"/>
<path d="M210.777 446.952L213.631 464.946L225.406 469.731L238.933 463.264L236.479 445.532L210.777 446.952Z" fill="#FBBD9A"/>
<path d="M246.544 487.022L185.502 486.139C185.502 486.139 185.088 484.871 184.923 483.037C184.675 480.155 185.075 475.922 188.701 473.081C193.83 469.096 201.98 468.545 207.274 466.49C210.446 465.263 212.362 462.133 212.362 462.133L221.049 462.63C221.049 462.63 221.766 467.469 224.993 467.18C228.219 466.89 238.878 461.664 238.878 461.664C244.393 471.096 246.006 478.707 246.448 483.037C246.696 485.588 246.544 487.022 246.544 487.022Z" fill="#502202"/>
<path d="M246.544 487.022L185.502 486.139C185.502 486.139 185.089 484.871 184.923 483.037H246.434C246.696 485.588 246.544 487.022 246.544 487.022Z" fill="#855321"/>
<path d="M283.773 446.952L286.628 464.946L298.403 469.731L311.93 463.264L309.475 445.532L283.773 446.952Z" fill="#FBBD9A"/>
<path d="M319.541 487.022L258.499 486.139C258.499 486.139 258.085 484.871 257.92 483.037C257.672 480.155 258.072 475.922 261.698 473.081C266.827 469.096 274.976 468.545 280.271 466.49C283.443 465.263 285.359 462.133 285.359 462.133L294.046 462.63C294.046 462.63 294.763 467.469 297.989 467.18C301.216 466.89 311.875 461.664 311.875 461.664C317.39 471.096 319.003 478.707 319.445 483.037C319.693 485.588 319.541 487.022 319.541 487.022Z" fill="#502202"/>
<path d="M319.541 487.022L258.499 486.139C258.499 486.139 258.085 484.871 257.92 483.037H319.431C319.693 485.588 319.541 487.022 319.541 487.022Z" fill="#855321"/>
<path d="M280.188 269.079L270.192 285.281C270.192 285.281 212.955 293.995 203.689 308.018C195.14 320.952 206.723 452.054 206.723 452.054H246.034C246.034 452.054 243.028 355.217 246.034 346.254C249.04 337.291 339.176 337.802 344.347 325.64C349.517 313.479 351.241 270.803 351.241 270.803" fill="#112C45"/>
<path d="M352.84 287.777C352.84 287.777 355.06 322.869 343.533 331.266C333.522 338.56 308.069 340.463 308.069 340.463L312.978 449.613L275.39 452.068C275.39 452.068 256.72 324.675 257.603 312.458C258.485 300.242 294.639 291.403 292.171 289.666C292.171 289.666 264.304 280.207 274.631 269.81C274.866 269.576 275.128 269.328 275.39 269.093C277.789 266.97 307.145 269.162 307.145 269.162L334.212 266.68L344.926 278.828L352.84 287.777Z" fill="#163A4A"/>
<path d="M351.448 298.89C351.213 300.614 350.951 302.462 350.676 304.337C346.043 298.449 338.555 289.831 331.951 286.205C318.259 278.676 274.494 273.533 274.494 273.533L274.659 269.796C274.894 269.562 275.155 269.314 275.417 269.079C277.817 266.956 307.173 269.148 307.173 269.148L334.24 266.666L344.953 278.814L351.448 298.89Z" fill="#112C45"/>
<path d="M333.316 157.888C333.316 157.888 317.197 178.709 307.159 177.647C297.121 176.586 289.275 165.472 289.275 165.472C289.275 165.472 293.301 163.983 295.039 157.406C296.059 153.614 296.294 148.126 294.556 140.253L324.395 135.827C324.395 135.827 324.188 140.804 325.512 146.168C326.642 150.746 328.876 155.627 333.316 157.888Z" fill="#FDBD9B"/>
<path d="M295.039 157.419C296.059 153.628 296.294 148.14 294.556 140.266L324.395 135.84C324.395 135.84 324.188 140.818 325.511 146.182C317.459 152.952 306.373 157.033 295.039 157.419Z" fill="#F0997F"/>
<path d="M267.144 122.603C267.599 118.577 272.453 115.806 277.968 116.44C283.498 117.06 287.593 120.838 287.138 124.878C286.683 128.905 281.829 131.676 276.314 131.042C270.798 130.408 266.689 126.63 267.144 122.603Z" fill="#F0997F"/>
<path d="M278.479 123.679V123.569C278.479 122.245 277.403 121.169 276.079 121.169H274.742C273.418 121.169 272.343 122.245 272.343 123.569V123.679C272.343 125.003 273.418 126.078 274.742 126.078H276.079C277.403 126.078 278.479 125.003 278.479 123.679Z" fill="#4B8394"/>
<path d="M274.356 123.624H272.343V129.139H274.356V123.624Z" fill="#4B8394"/>
<path d="M334.502 112.165C334.502 93.1096 321.32 77.6526 305.049 77.6526C288.779 77.6526 275.597 87.8285 275.597 112.165C275.597 131.221 282.987 147.754 300.499 148.912C316.728 149.974 334.502 131.235 334.502 112.165Z" fill="#FDBD9B"/>
<path d="M331.027 121.183C325.635 115.999 321.637 109.38 319.679 102.003C316.935 102.886 313.777 102.334 311.778 100.804C305.794 103.23 298.706 102.775 293.274 99.7418C289.027 101.727 283.856 101.631 279.554 99.3144C277.486 102.127 275.941 105.312 274.99 108.677C275.404 102.113 275.831 95.5501 276.259 88.9729C291.798 86.7806 307.421 85.25 323.085 84.3951C323.967 84.34 324.905 84.3124 325.704 84.7123C326.876 85.319 327.387 86.6978 327.773 87.9664C331.082 98.8594 332.764 110.249 331.027 121.183Z" fill="#F0997F"/>
<path d="M338.514 86.8633C337.866 96.6532 337.232 109.284 336.584 118.949C335.674 122.272 332.819 122.148 328.945 123.389C325.346 115.364 323.14 106.733 321.802 97.2461C318.038 98.2389 313.957 97.9631 310.11 96.4739C304.346 98.6939 297.81 98.8042 291.895 96.4326C287.428 97.908 282.56 98.1975 278.355 96.6808C276.769 101.493 275.997 108.801 275.583 113.93C275.032 109.228 273.212 94.6814 272.757 84.7123C272.563 80.4378 272.605 77.0045 273.101 75.5429C274.949 70.124 280.933 71.8751 282.533 73.7366C283.622 71.2271 285.952 69.2829 288.613 68.6624C291.275 68.0419 294.225 68.7589 296.666 70.579C298.334 67.449 301.781 65.3531 305.311 65.2704C308.855 65.2153 312.371 67.187 313.598 70.5652C315.239 69.6552 316.963 68.8279 318.797 68.4694C320.644 68.1246 322.644 68.3039 324.229 69.3105C324.988 69.7931 325.636 70.4825 326.132 71.3374C326.67 72.2336 327.028 73.2954 327.194 74.4398C328.683 72.3577 331.827 71.9717 334.074 73.1575C336.336 74.3433 337.728 76.7563 338.294 79.252C338.859 81.734 338.693 84.3262 338.514 86.8633Z" fill="#502202"/>
<path d="M326.132 71.3374C324.174 70.4825 321.954 70.2619 319.872 70.7307C317.252 71.3236 314.894 73.0058 313.584 75.5567C312.357 72.2612 308.869 69.9585 305.353 70.124C301.837 70.3032 298.582 72.9231 296.969 77.0321C295.08 74.7983 292.019 73.5849 289.11 73.9296C286.2 74.2743 283.498 76.1358 282.215 79.059C281.209 77.8732 279.389 77.6525 277.927 78.1903C276.479 78.7418 275.335 79.9277 274.48 81.2238C273.749 82.3131 273.198 83.4851 272.743 84.6985C272.55 80.424 272.591 76.9907 273.087 75.5291C274.935 70.1102 280.919 71.8613 282.519 73.7228C283.608 71.2133 285.938 69.2691 288.599 68.6486C291.261 68.0281 294.211 68.7451 296.652 70.5652C298.32 67.4352 301.768 65.3394 305.297 65.2566C308.841 65.2015 312.357 67.1732 313.584 70.5514C315.225 69.6414 316.949 68.8141 318.783 68.4556C320.63 68.1109 322.63 68.2901 324.215 69.2967C324.988 69.7931 325.636 70.4825 326.132 71.3374Z" fill="#6B4019"/>
<path d="M287.538 110.704C285.001 110.097 282.215 110.607 280.051 112.069" stroke="#502202" stroke-width="2" stroke-miterlimit="10" stroke-linecap="round"/>
<path d="M306.993 111.2C309.751 110.001 313.116 110.331 315.598 112.041" stroke="#502202" stroke-width="2" stroke-miterlimit="10" stroke-linecap="round"/>
<path d="M295.19 121.735C295.259 124.465 295.535 127.181 295.99 129.87" stroke="#B0514A" stroke-width="2" stroke-miterlimit="10" stroke-linecap="round"/>
<path d="M299.037 137.454C302.347 137.578 305.697 136.337 308.124 134.089" stroke="#B0514A" stroke-width="2" stroke-miterlimit="10" stroke-linecap="round"/>
<path d="M308.069 121.128C308.896 120.976 309.737 121.748 309.917 122.838C310.11 123.927 309.586 124.92 308.758 125.071C307.931 125.223 307.09 124.451 306.911 123.362C306.718 122.272 307.228 121.28 308.069 121.128Z" fill="#2D3A5E"/>
<path d="M284.987 121.445C285.814 121.293 286.655 122.066 286.834 123.155C287.027 124.244 286.504 125.237 285.676 125.389C284.849 125.54 284.008 124.768 283.829 123.679C283.622 122.59 284.146 121.583 284.987 121.445Z" fill="#2D3A5E"/>
<path d="M331.965 116.426C337.466 115.668 342.389 118.315 342.94 122.328C343.492 126.34 339.479 130.228 333.978 130.987C328.476 131.745 323.554 129.098 323.002 125.085C322.45 121.073 326.449 117.184 331.965 116.426Z" fill="#FDBD9B"/>
<path d="M331.647 123.679V123.569C331.647 122.245 332.723 121.169 334.047 121.169H335.384C336.708 121.169 337.783 122.245 337.783 123.569V123.679C337.783 125.003 336.708 126.078 335.384 126.078H334.047C332.723 126.078 331.647 125.003 331.647 123.679Z" fill="#4B8394"/>
<path d="M337.783 123.624H335.77V129.139H337.783V123.624Z" fill="#4B8394"/>
<path d="M329.648 153.324C329.648 153.324 313.309 163.197 310.468 166.74C307.628 170.298 306.759 175.152 306.759 175.152C306.759 175.152 302.843 166.892 301.96 166.203C301.078 165.513 294.225 159.019 294.225 159.019L286.186 165.113L275.417 170.712L275.873 274.153L348.704 279.09L350.579 166.837L329.648 153.324Z" fill="#69C5C9"/>
<path d="M306.676 175.758C303.229 204.769 309.213 255.47 299.492 275.16" stroke="#3E7C8A" stroke-width="0.5" stroke-miterlimit="10" stroke-linecap="round"/>
<path d="M308.083 170.85C308.083 170.85 309.31 166.272 312.136 164.01C314.963 161.749 329.538 153.173 329.924 153.076C330.31 152.98 337.466 157.971 337.466 157.971L326.656 173.318C326.656 173.318 315.57 165.527 312.978 166.189C310.496 166.837 308.083 170.85 308.083 170.85Z" fill="#9BEBE7"/>
<path d="M304.691 170.863C304.691 170.863 303.849 167.637 302.374 165.817C300.664 163.707 295.011 157.612 294.432 157.654C293.853 157.681 288.117 161.129 287.096 163.211C286.076 165.293 286.655 175.138 286.655 175.138C286.655 175.138 296.335 165.927 300.113 166.975C302.622 167.678 304.691 170.863 304.691 170.863Z" fill="#9BEBE7"/>
<path d="M335.908 156.178C335.908 156.178 323.264 168.064 321.361 180.129C319.458 192.194 320.189 255.677 331.895 276.801C342.044 295.126 343.009 353.493 343.009 380.588L378.528 368.343C378.528 368.343 378.377 319.739 366.905 274.733C358.011 239.848 366.546 176.103 361.458 169.871C357.915 165.513 335.908 156.178 335.908 156.178Z" fill="white"/>
<path d="M320.92 223.922C320.92 223.922 317.983 190.388 320.823 179.591C323.664 168.795 331.882 155.075 334.102 154.593C337.769 153.807 345.974 160.163 345.974 160.163C345.974 160.163 339.328 171.663 337.37 189.106C337.19 190.678 324.16 195.49 324.16 195.49C324.16 195.49 334.336 202.936 334.198 203.666C334.047 204.425 320.92 223.922 320.92 223.922Z" fill="#DAE8F7"/>
<path d="M297.603 289.652C305.226 289.652 311.406 285.806 311.406 281.062C311.406 276.317 305.226 272.471 297.603 272.471C289.981 272.471 283.801 276.317 283.801 281.062C283.801 285.806 289.981 289.652 297.603 289.652Z" fill="#407C91"/>
<path d="M316.521 269.81C311.833 269.19 307.145 268.569 302.457 267.949C301.202 267.783 299.851 267.631 298.707 268.169C297.121 268.914 296.39 270.734 296.252 272.609C298.596 272.816 300.94 273.009 303.312 273.395C300.444 277.339 296.928 280.813 292.971 283.668C292.088 284.302 291.164 284.922 290.502 285.777C289.827 286.632 289.454 287.79 289.799 288.824C290.158 289.845 291.178 290.534 292.24 290.741C293.301 290.948 294.391 290.769 295.659 290.838C295.273 292.396 296.059 294.147 297.466 294.905C298.872 295.664 300.775 295.346 302.154 294.299C302.871 295.65 304.263 296.629 305.78 296.849C307.297 297.07 308.91 296.518 310.234 296.146C311.337 297.429 313.033 298.187 314.715 298.159C316.411 298.132 318.066 297.318 319.431 296.105C323.498 292.492 326.739 287.942 328.821 282.909C324.367 278.91 320.231 274.581 316.521 269.81Z" fill="#FBBD9A"/>
<path d="M339.245 182.653C338.9 175.993 342.278 163.459 347.077 162.149C354.55 160.122 367.25 171.346 370.586 180.281C373.923 189.216 384.003 243.97 381.176 251.43C377.301 261.606 326.132 288.976 326.132 288.976L310.275 265.798C310.275 265.798 345.753 246.549 347.863 240.427C349.173 236.593 340.059 198.275 339.245 182.653Z" fill="white"/>
<path d="M356.412 171.18C356.412 171.18 350.69 178.668 350.69 192.153C350.69 205.638 353.999 237.572 353.227 238.744C352.468 239.916 327.456 256.132 327.456 256.132" stroke="#B8C8E3" stroke-miterlimit="10" stroke-linecap="round"/>
<path d="M351.103 212.491C347.325 208.01 344.719 202.784 343.547 197.31" stroke="#B8C8E3" stroke-miterlimit="10" stroke-linecap="round"/>
<path d="M337.521 283.475C345.643 279.048 357.391 272.14 364.464 266.501" stroke="#B8C8E3" stroke-miterlimit="10" stroke-linecap="round"/>
<path d="M292.184 158.536C292.184 158.536 290.033 166.809 290.033 181.191C290.033 205.321 286.89 272.416 274.19 282.33C264.207 290.121 251.701 289.624 246.02 289.624C246.02 289.624 257.837 283.337 262.249 276.043C267.158 267.935 267.985 242.164 268.634 228.734C269.323 214.504 270.605 175.289 272.232 171.87C275.762 164.493 292.184 158.536 292.184 158.536Z" fill="white"/>
<path d="M288.062 225.976C288.062 225.976 290.943 203.266 290.943 187.479C290.943 169.802 293.853 157.64 293.853 157.64C293.853 157.64 283.815 160.825 282.712 162.452C281.609 164.079 276.41 173.414 273.749 191.105C273.308 194.028 285.166 196.441 285.166 196.441C285.166 196.441 276.024 203.542 276.024 205.321C276.038 208.768 288.062 225.976 288.062 225.976Z" fill="#DAE8F7"/>
<path d="M271.681 178.888C271.681 217.358 268.192 248.134 266.51 258.821" stroke="#B8C8E3" stroke-miterlimit="10" stroke-linecap="round"/>
<path d="M266.22 192.677C267.213 198.192 269.612 203.639 271.088 205.307" stroke="#B8C8E3" stroke-miterlimit="10" stroke-linecap="round"/>
<path d="M273.308 129.056C273.308 129.056 275.197 173.442 301.809 175.138C324.27 176.572 336.735 148.967 336.735 128.987" stroke="#163649" stroke-miterlimit="10"/>
<path d="M303.491 175.689C303.491 175.689 287.124 235.504 241.718 246.314C186.15 259.551 131.699 244.674 131.699 244.674" stroke="#163649" stroke-miterlimit="10" stroke-linecap="round"/>
<path d="M230.108 177.385C230.108 177.385 236.382 213.649 208.267 232.429C183.365 249.072 131.699 243.929 131.699 243.929" stroke="#163649" stroke-miterlimit="10" stroke-linecap="round"/>
<path d="M284.739 280.841C284.739 280.841 182.896 281.048 130.996 244.674" stroke="#163649" stroke-miterlimit="10" stroke-linecap="round"/>
<path d="M497.951 25.5179C497.331 14.6525 505.218 3.89745 515.766 1.23626C526.315 -1.42494 538.366 4.29732 542.971 14.1562C546.915 22.5948 545.563 32.4812 543.661 41.6092C541.772 50.7373 539.414 60.1824 541.579 69.2415C543.412 76.8666 548.335 83.5954 549.314 91.3722C550.651 102.072 543.123 113.186 532.685 115.902C526.783 117.433 519.158 115.544 517.283 109.739C515.546 104.361 519.517 98.6388 518.717 93.0544C518.041 88.3663 514.222 84.8916 511.078 81.3617C499.496 68.3177 499.33 49.5239 497.951 25.5179Z" fill="#381B07"/>
<path d="M396.702 162.866C391.421 156.84 387.56 145.989 387.56 142.335C387.56 138.019 386.871 133.593 388.387 129.553C389.173 127.471 390.373 125.582 391.573 123.706C392.938 121.569 394.289 119.432 395.654 117.295C396.219 116.412 396.867 115.475 397.874 115.199C399.57 114.744 401.128 116.66 401.045 118.425C400.949 120.177 399.791 121.666 397.791 123.224C398.55 120.011 400.177 117.005 402.438 114.606C403.031 113.972 403.831 113.337 404.686 113.53C406.078 113.861 406.037 115.847 405.665 117.226C404.727 120.687 403.803 124.148 403.058 127.126C406.009 132.752 405.747 139.425 405.802 145.768C405.858 152.111 406.478 158.978 410.67 163.748C406.643 165.513 401.9 158.481 396.702 162.866Z" fill="#DB8E62"/>
<path d="M396.095 162.121C396.095 162.121 410.091 209.94 420.666 210.919C433.462 212.119 443.859 200.288 443.859 200.288L452.215 157.461L433.269 146.113L422.817 180.433L407.898 163.569L396.095 162.121Z" fill="#DB8E62"/>
<path d="M459.123 164.603C448.699 160.66 438.233 156.799 427.823 152.8C430.663 139.191 434.607 122.879 438.054 117.667C444.507 107.918 454.931 107.422 454.931 107.422L459.688 121.5L459.123 164.314C459.123 164.314 459.123 164.424 459.123 164.603Z" fill="#1D9FB3"/>
<path d="M449.512 192.305L419.039 113.53L381.672 123.224L416.254 210.933L449.512 192.305Z" fill="#B23F37"/>
<path d="M444.438 187.975L416.985 117.86L386.512 126.119L416.53 202.839L444.438 187.975Z" fill="#EBF5FF"/>
<path d="M407.195 115.957L409.098 121.045L397.143 124.368L395.006 119.17L407.195 115.957Z" fill="#678CA8"/>
<path d="M431.504 477.039C431.615 482.209 485.845 480.458 488.286 476.197C489.871 473.412 486.948 466.408 484.715 461.871C483.529 459.431 482.536 457.707 482.536 457.707L475.642 448.055L470.14 447.903C457.937 454.949 445.776 462.616 438.44 468.614C434.11 472.171 431.463 475.122 431.504 477.039Z" fill="#136D94"/>
<path d="M438.44 468.628C449.65 475.687 475.476 465.815 484.714 461.885C483.529 459.444 482.536 457.721 482.536 457.721L475.641 448.069L470.14 447.917C457.937 454.963 445.762 462.63 438.44 468.628Z" fill="#DB8E62"/>
<path d="M455.083 426.641L457 447.779L457.689 455.363L458.172 460.575L480.109 458.272L480.289 454.591V454.577L480.468 450.716L481.681 425.731L481.805 423.222L468.444 424.932L455.083 426.641Z" fill="#DB8E62"/>
<path d="M455.083 426.641L457 447.779L467.975 449.144H467.989L477.241 450.316L480.468 450.716L481.681 425.731L468.444 424.932L455.083 426.641Z" fill="#CF6E4A"/>
<path d="M439.584 215.152C439.584 215.152 430.153 241.24 432.015 278.331C433.876 315.423 449.512 444.773 449.512 444.773L488.479 442.939L481.805 275.96L472.401 224.253" fill="#1D9FB3"/>
<path d="M529.003 476.515C532.437 480.376 572.575 443.863 571.679 439.051C571.086 435.907 564.316 432.474 559.669 430.475C557.187 429.399 555.312 428.724 555.312 428.724L543.798 425.856L539.51 429.303C534.794 442.581 530.506 456.314 528.824 465.622C527.817 471.11 527.735 475.081 529.003 476.515Z" fill="#136D94"/>
<path d="M528.824 465.608C541.937 463.705 555.188 439.437 559.669 430.461C557.187 429.385 555.312 428.71 555.312 428.71L543.798 425.842L539.51 429.289C534.794 442.567 530.506 456.287 528.824 465.608Z" fill="#DB8E62"/>
<path d="M514.263 422.863L523.377 431.785L534.863 443.022L538.614 446.676L553.823 430.709L551.561 427.772L544.984 419.251L532.381 402.925L514.263 422.863Z" fill="#DB8E62"/>
<path d="M514.263 422.863L523.377 431.785L544.984 419.251L532.381 402.925L514.263 422.863Z" fill="#CF6E4A"/>
<path d="M434.4 239.668C438.192 250.203 466.748 268.762 466.748 268.762C466.748 268.762 466.472 342.297 467.534 360.829C468.596 379.36 506.997 439.865 506.997 439.865L542.985 407.917C542.985 407.917 515.091 361.27 513.174 350.308C511.257 339.332 523.322 281.696 523.322 258.228C523.322 253.898 522.923 249.417 522.261 244.977C520.827 235.187 518.165 225.618 515.849 218.517C513.546 211.416 511.602 206.755 511.602 206.755C511.602 206.755 492.05 209.595 472.525 215.056C454.655 220.047 436.854 227.259 434.138 236.456C433.862 237.393 433.972 238.483 434.4 239.668Z" fill="#25B2C2"/>
<path d="M434.4 239.668C443.914 245.294 453.828 250.244 464.032 254.45C464.666 252.754 465.3 251.058 466.183 249.362C467.079 251.306 467.989 253.222 469.092 255.856C486.686 251.444 504.446 247.707 522.274 244.977C520.84 235.187 518.179 225.618 515.863 218.517C501.44 217.165 486.99 216.007 472.539 215.056C454.669 220.047 436.868 227.259 434.152 236.456C433.862 237.393 433.972 238.483 434.4 239.668Z" fill="#1D9FB3"/>
<path d="M534.339 118.839C532.974 110.566 501.661 99.9349 491.016 100.9C468.154 102.982 451.594 107.133 446.382 110.4C441.17 113.668 436.413 144.196 436.413 152.704C436.413 162.769 439.874 182.528 438.95 190.498C437.157 205.955 427.781 238.689 427.781 238.689L462.239 250.768L466.513 243.24L470.416 252.781L527.362 239.723C527.362 239.723 523.005 194.373 523.005 186.417C523.019 178.792 536.104 129.511 534.339 118.839Z" fill="#27B8C1"/>
<path d="M481.143 124.244C469.699 183.852 469.064 200.922 466.458 242.798" stroke="#51DBDB" stroke-miterlimit="10" stroke-linecap="round"/>
<path d="M482.66 137.964C483.718 137.964 484.576 137.106 484.576 136.047C484.576 134.989 483.718 134.131 482.66 134.131C481.601 134.131 480.743 134.989 480.743 136.047C480.743 137.106 481.601 137.964 482.66 137.964Z" fill="#136D94"/>
<path d="M477.861 164.038C478.92 164.038 479.778 163.18 479.778 162.121C479.778 161.063 478.92 160.205 477.861 160.205C476.803 160.205 475.945 161.063 475.945 162.121C475.945 163.18 476.803 164.038 477.861 164.038Z" fill="#136D94"/>
<path d="M474.166 191.519C475.224 191.519 476.083 190.661 476.083 189.602C476.083 188.544 475.224 187.685 474.166 187.685C473.107 187.685 472.249 188.544 472.249 189.602C472.249 190.661 473.107 191.519 474.166 191.519Z" fill="#136D94"/>
<path d="M472.249 223.026C473.308 223.026 474.166 222.167 474.166 221.109C474.166 220.05 473.308 219.192 472.249 219.192C471.191 219.192 470.333 220.05 470.333 221.109C470.333 222.167 471.191 223.026 472.249 223.026Z" fill="#136D94"/>
<path d="M414.682 161.142L420.391 161.597L420.832 161.639L459.109 151.587C461.729 150.194 462.17 148.043 461.55 146.292C460.764 144.114 458.213 143.093 456.02 143.865L419.508 156.771L419.136 157.102L414.682 161.142Z" fill="#136D94"/>
<path d="M414.682 161.142L416.254 161.267L420.391 161.597C420.267 161.501 420.129 161.404 420.018 161.28C419.536 160.798 419.246 160.081 419.453 159.433C419.536 159.157 419.701 158.867 419.591 158.605C419.536 158.481 419.425 158.398 419.343 158.302C419.067 157.985 419.026 157.502 419.122 157.102L415.854 160.081L414.682 161.142Z" fill="#D68A5A"/>
<path d="M414.682 161.142L416.254 161.267C416.089 161.087 415.978 160.88 415.909 160.646C415.854 160.467 415.84 160.274 415.854 160.081L414.682 161.142Z" fill="#24151A"/>
<path d="M459.909 169.65C456.144 162.673 452.394 155.696 448.381 148.705C445.403 146.389 442.052 144.637 438.633 143.328C434.551 144.651 430.718 147.092 427.561 150.374C426.789 151.187 425.975 152.331 426.334 153.421C426.595 154.221 427.423 154.607 428.195 154.551C428.953 154.496 429.67 154.083 430.36 153.683C432.442 152.469 434.524 151.242 436.937 150.07C437.613 150.649 438.288 151.228 438.798 151.821C437.392 151.835 435.986 151.863 434.303 152.345C431.615 153.614 428.981 155.062 426.43 156.689C425.713 157.144 424.927 157.75 424.844 158.66C424.775 159.405 425.23 160.081 425.823 160.398C426.416 160.715 427.092 160.729 427.754 160.674C430.153 160.508 432.538 159.639 434.51 158.15C435.31 158.385 436.11 158.619 436.716 159.005C435.682 159.198 434.648 159.391 433.683 159.874C432.718 160.356 431.835 161.156 431.408 162.245C430.98 163.335 431.132 164.714 431.697 165.858C431.146 166.065 430.842 166.782 430.87 167.43C430.898 168.078 431.173 168.657 431.449 169.209C432.042 170.381 432.69 171.511 433.393 172.587C434.069 173.593 434.841 174.586 435.903 175.027C436.965 175.455 438.357 175.152 439.06 173.828C441.901 178.737 447.223 181.618 452.38 181.067C455.455 177.744 458.02 173.842 459.909 169.65Z" fill="#DB8E62"/>
<path d="M443.5 152.621C442.135 152.056 440.688 151.863 439.212 151.711" stroke="#A8473E" stroke-width="0.5" stroke-miterlimit="10" stroke-linecap="round"/>
<path d="M440.729 158.647C439.35 158.536 437.999 158.578 436.965 158.757" stroke="#A8473E" stroke-width="0.5" stroke-miterlimit="10" stroke-linecap="round"/>
<path d="M431.89 165.431C433.807 164.369 436.978 163.762 439.157 164.038" stroke="#A8473E" stroke-width="0.5" stroke-miterlimit="10" stroke-linecap="round"/>
<path d="M438.468 173.456C437.792 172.366 437.199 170.574 436.937 169.319" stroke="#A8473E" stroke-width="0.5" stroke-miterlimit="10" stroke-linecap="round"/>
<path d="M437.378 171.567C436.51 171.677 435.599 171.829 434.896 171.76" stroke="#A8473E" stroke-width="0.5" stroke-miterlimit="10" stroke-linecap="round"/>
<path d="M450.063 179.288C450.063 179.288 497.717 219.702 510.582 215.152C515.697 213.332 520.771 198.496 524.453 184.679C527.845 171.98 530.051 160.163 530.051 160.163L503.053 148.76C503.053 148.76 501.247 161.004 499.427 170.96C498.227 177.675 497.014 183.342 496.366 183.507C493.608 184.28 458.626 168.712 458.626 168.712L450.063 179.288Z" fill="#DB8E62"/>
<path d="M499.427 170.974C505.866 175.193 515.987 181.412 524.439 184.693C527.831 171.994 530.037 160.177 530.037 160.177L503.039 148.774C503.039 148.774 501.247 161.018 499.427 170.974Z" fill="#CF6E4A"/>
<path d="M530.037 174.545C518.221 172.297 508.844 170.353 497.552 166.313C499.151 153.048 502.888 129.056 505.921 121.666C508.072 116.426 516.525 107.215 526.053 111.2C535.58 115.185 539.234 121.473 538.228 138.06C537.855 143.962 532.244 162.535 530.037 174.545Z" fill="#32C9CF"/>
<path d="M472.429 106.939C472.429 106.939 475.2 119.487 480.55 123.155C485.9 126.823 506.156 104.264 506.156 104.264C502.667 101.01 501.826 94.6263 501.867 88.973C501.909 83.2093 502.874 78.2455 502.874 78.2455L478.192 85.3741C478.441 91.4687 477.944 95.8673 477.172 99.0248C475.49 105.878 472.429 106.939 472.429 106.939Z" fill="#DB8E62"/>
<path d="M477.186 99.0249C488.561 101.438 497.262 94.1988 501.867 88.973C501.909 83.2093 502.874 78.2455 502.874 78.2455L478.192 85.3742C478.454 91.4825 477.958 95.8673 477.186 99.0249Z" fill="#CF6E4A"/>
<path d="M481.46 123.596C481.143 123.541 482.729 115.075 483.529 114.344C484.328 113.613 503.784 96.5705 504.942 97.2047C506.638 98.1148 509.437 103.52 509.437 103.52C509.437 103.52 505.439 108.939 497.896 115.061C492.712 119.266 484.439 124.106 481.46 123.596Z" fill="#136D94"/>
<path d="M481.46 123.555C481.888 123.127 481.019 114.73 480.523 113.958C478.909 111.407 476.179 104.761 476.179 100.238C476.179 100.238 471.27 102.1 470.664 103.175C470.071 104.264 472.732 112.22 474.787 116.012C478.275 122.396 481.116 123.899 481.46 123.555Z" fill="#136D94"/>
<path d="M468.181 67.236C468.647 63.1199 464.456 59.2652 458.819 58.6264C453.182 57.9875 448.234 60.8065 447.767 64.9227C447.301 69.0388 451.493 72.8935 457.13 73.5323C462.767 74.1711 467.714 71.3522 468.181 67.236Z" fill="#CF6E4A"/>
<path d="M516.454 54.2533C516.454 34.8114 503.01 19.0511 486.422 19.0511C469.835 19.0511 456.391 34.8114 456.391 54.2533C456.391 73.6952 464.678 93.0268 481.486 92.3374C498.046 91.6479 516.454 73.6952 516.454 54.2533Z" fill="#DB8E62"/>
<path d="M509.796 62.5954C506.307 58.8035 504.101 51.6473 503.563 48.6C500.227 47.6348 496.187 44.4358 494.16 40.12C489.072 45.208 469.74 48.076 463.287 46.3938C458.695 52.0609 458.558 54.8738 456.93 62.1128C455.883 53.2743 456.351 44.2566 458.296 35.5698C470.388 31.6676 482.219 26.9657 493.691 21.4779C495.649 20.5402 497.993 19.5888 499.868 20.6919C501.068 21.3951 501.688 22.7602 502.309 24.015C504.901 29.296 508.624 34.0255 513.146 37.7898C514.318 38.7687 515.656 39.8718 515.711 41.3886C515.753 42.3814 515.229 43.2914 514.746 44.1601C512.581 48.145 512.953 57.728 509.796 62.5954Z" fill="#CF6E4A"/>
<path d="M451.291 42.34C451.194 49.7031 457.192 64.9946 457.192 64.9946C457.192 64.9946 457.234 52.4057 462.97 44.229C474.842 44.229 487.996 43.6775 495.276 36.9211C497.386 42.2711 501.013 45.3873 505.384 46.8489C505.246 53.5225 508.307 59.7688 510.223 65.3807C513.96 63.1056 516.773 64.0708 519.82 60.472C521.585 53.95 523.46 43.7602 522.923 37.4588C522.481 32.3846 521.103 27.2553 518.345 22.9946C517.697 21.9743 516.952 20.9953 516.139 20.0852C511.892 15.3833 505.19 12.6394 499.055 14.1699C495.663 10.0885 490.423 7.67552 485.197 7.38596C479.957 7.0964 474.759 8.73725 470.195 11.3433C461.301 16.4037 454.352 24.2356 452.077 35.1286C451.58 37.4726 451.332 39.8856 451.291 42.34Z" fill="#412408"/>
<path d="M451.291 42.34C451.539 41.3886 451.842 40.451 452.187 39.5271C453.883 35.0458 456.64 31.0196 459.812 27.4208C464.597 21.9329 470.539 17.2034 477.558 15.2454C484.576 13.3013 492.725 14.5284 497.965 19.5888C504.583 16.776 512.705 18.3065 518.331 22.9808C517.683 21.9605 516.938 20.9815 516.125 20.0714C511.878 15.3695 505.176 12.6256 499.04 14.1562C495.648 10.0747 490.409 7.66173 485.183 7.37217C479.943 7.08261 474.745 8.72345 470.181 11.3295C461.287 16.3899 454.338 24.2218 452.063 35.1148C451.58 37.4726 451.332 39.8856 451.291 42.34Z" fill="#664216"/>
<path d="M514.622 58.9139C520.123 57.5075 525.404 59.6171 526.439 63.6296C527.473 67.6421 523.846 72.0406 518.345 73.4471C512.843 74.8535 507.562 72.7438 506.528 68.7314C505.508 64.7189 509.134 60.3203 514.622 58.9139Z" fill="#DB8E62"/>
<path d="M488.465 69.3656C489.188 69.3656 489.775 68.4272 489.775 67.2697C489.775 66.1122 489.188 65.1739 488.465 65.1739C487.742 65.1739 487.155 66.1122 487.155 67.2697C487.155 68.4272 487.742 69.3656 488.465 69.3656Z" fill="#411F00"/>
<path d="M464.404 69.3656C465.127 69.3656 465.714 68.4272 465.714 67.2697C465.714 66.1122 465.127 65.1739 464.404 65.1739C463.68 65.1739 463.094 66.1122 463.094 67.2697C463.094 68.4272 463.68 69.3656 464.404 69.3656Z" fill="#411F00"/>
<path d="M468.265 54.5705C465.755 53.7018 462.873 53.9224 460.529 55.1909" stroke="#412408" stroke-width="2" stroke-miterlimit="10" stroke-linecap="round"/>
<path d="M486.424 55.6598C489.237 54.4326 492.671 54.7773 495.194 56.5147" stroke="#412408" stroke-width="2" stroke-miterlimit="10" stroke-linecap="round"/>
<path d="M473.408 68.8693C473.187 70.2205 473.201 73.4471 473.436 74.757" stroke="#A8473E" stroke-width="2" stroke-miterlimit="10" stroke-linecap="round"/>
<path d="M474.883 80.5757C478.537 82.0235 482.357 81.2376 484.328 78.2455" stroke="#A8473E" stroke-width="2" stroke-miterlimit="10" stroke-linecap="round"/>
</svg>
