<svg width="13" height="12" viewBox="0 0 13 12" fill="none" xmlns="http://www.w3.org/2000/svg">
<path d="M12.8424 4.49003C12.7395 4.17725 12.47 3.94987 12.1441 3.9024L8.84281 3.4227L7.36765 0.442012C7.07556 -0.147337 6.1102 -0.147337 5.81811 0.442012L4.34295 3.4227L1.0495 3.9024C0.724526 3.94987 0.454047 4.17805 0.352088 4.49095C0.250129 4.80293 0.334854 5.14607 0.570726 5.37584L2.95941 7.70407L2.39591 10.9889C2.34062 11.313 2.47374 11.6414 2.73984 11.8349C2.8902 11.9438 3.06826 11.9991 3.24712 11.9991C3.38541 11.9991 3.5237 11.9662 3.65151 11.8997L6.59334 10.3484L9.54459 11.8997C9.83495 12.0544 10.1875 12.0284 10.4547 11.834C10.72 11.6404 10.8531 11.313 10.7978 10.9888L10.2352 7.70394L12.6239 5.37571C12.8597 5.14686 12.9436 4.80293 12.8424 4.49003Z" fill="#031126" fill-opacity="0.5"/>
</svg>
