<svg width="14" height="12" viewBox="0 0 14 12" fill="none" xmlns="http://www.w3.org/2000/svg">
<path d="M13.0149 4.49002C12.913 4.17725 12.6425 3.94986 12.3166 3.9024L9.01531 3.4227L7.54015 0.442012C7.24806 -0.147337 6.28269 -0.147337 5.9906 0.442012L4.51544 3.4227L1.22198 3.9024C0.897012 3.94986 0.626533 4.17804 0.524574 4.49095C0.422614 4.80293 0.50734 5.14606 0.743212 5.37583L3.1319 7.70406L2.5684 10.9889C2.51311 11.3129 2.64623 11.6414 2.91233 11.8349C3.17936 12.0276 3.53284 12.0528 3.8232 11.8998L6.76491 10.3485L9.71537 11.8998C9.84159 11.9663 9.97988 11.9992 10.1172 11.9992C10.2961 11.9992 10.475 11.943 10.6262 11.8351C10.8925 11.6406 11.0255 11.3131 10.9702 10.989L10.4076 7.70419L12.7963 5.37597C13.0322 5.14686 13.1169 4.80293 13.0149 4.49002Z" fill="#FEB813"/>
</svg>
